<svg xmlns="http://www.w3.org/2000/svg" width="32" height="32" viewBox="0 0 32 32" fill="none">
  <rect width="32" height="32" rx="7" fill="#7C3AED"/>
  <rect x="6" y="6" width="7" height="7" rx="1.5" fill="white"/>
  <rect x="19" y="6" width="7" height="7" rx="1.5" fill="white"/>
  <rect x="6" y="19" width="7" height="7" rx="1.5" fill="white"/>
  <rect x="8" y="8" width="3" height="3" rx="0.5" fill="#7C3AED"/>
  <rect x="21" y="8" width="3" height="3" rx="0.5" fill="#7C3AED"/>
  <rect x="8" y="21" width="3" height="3" rx="0.5" fill="#7C3AED"/>
  <rect x="16" y="15" width="2" height="2" fill="white"/>
  <rect x="19" y="15" width="2" height="2" fill="white"/>
  <rect x="22" y="15" width="2" height="2" fill="white"/>
  <rect x="15" y="18" width="2" height="2" fill="white"/>
  <rect x="18" y="18" width="2" height="2" fill="white"/>
  <rect x="21" y="18" width="2" height="2" fill="white"/>
  <rect x="15" y="21" width="2" height="2" fill="white"/>
  <rect x="18" y="21" width="2" height="2" fill="white"/>
  <rect x="21" y="21" width="2" height="2" fill="white"/>
  <rect x="15" y="24" width="2" height="2" fill="white"/>
  <rect x="18" y="24" width="2" height="2" fill="white"/>
  <rect x="21" y="24" width="2" height="2" fill="white"/>
</svg>
